<mxfile host="app.diagrams.net" modified="2023-06-28T09:12:35.349Z" agent="Mozilla/5.0 (Windows NT 10.0; Win64; x64) AppleWebKit/537.36 (KHTML, like Gecko) Chrome/116.0.0.0 Safari/537.36 Edg/116.0.1923.0" version="21.5.1" etag="pVwjwC1r2FaF9vvhSbSK" type="github">
  <diagram name="Page-1" id="7FqEsYWDeaGX7wjlsTPA">
    <mxGraphModel>
      <root>
        <mxCell id="0" />
        <mxCell id="1" parent="0" />
      </root>
    </mxGraphModel>
  </diagram>
</mxfile>
